<svg width="25" height="25" viewBox="0 0 25 25" fill="none" xmlns="http://www.w3.org/2000/svg">
<path fill-rule="evenodd" clip-rule="evenodd" d="M8.3 5.20498C6.28502 5.20498 4.6 6.91131 4.6 9.07698C4.6 9.86408 4.9296 10.6384 5.30447 11.2535C5.48761 11.5539 5.67124 11.7995 5.80805 11.9686C5.87617 12.0528 5.93189 12.1171 5.96908 12.1588C5.98765 12.1796 6.00152 12.1947 6.00992 12.2037L6.0183 12.2127C6.01815 12.2125 6.01853 12.2129 6.0183 12.2127C6.01837 12.2128 6.019 12.2134 6.01905 12.2135C6.01904 12.2135 6.01915 12.2136 6.01905 12.2135L12.8 19.252L19.5808 12.2136L19.5816 12.2128L19.5901 12.2037C19.5985 12.1947 19.6123 12.1796 19.6309 12.1588C19.6681 12.1171 19.7238 12.0528 19.7919 11.9686C19.9287 11.7995 20.1124 11.5539 20.2955 11.2535C20.6704 10.6384 21 9.86408 21 9.07698C21 6.91048 19.3151 5.20498 17.3 5.20498C15.285 5.20498 13.6 6.91131 13.6 9.07698H12C12 6.91048 10.3151 5.20498 8.3 5.20498ZM12.8001 6.18676C11.8689 4.64306 10.2121 3.60498 8.3 3.60498C5.34508 3.60498 3 6.08501 3 9.07698C3 10.2824 3.49176 11.3537 3.93826 12.0862C4.1658 12.4595 4.39285 12.7632 4.56406 12.9748C4.64994 13.081 4.72255 13.165 4.77521 13.224C4.80156 13.2536 4.82297 13.2769 4.83864 13.2937L4.85773 13.3141L4.86387 13.3205L4.86605 13.3228L12.8 21.5581L20.7327 13.3241L20.7339 13.3228L20.7361 13.3205L20.7422 13.3141L20.7613 13.2937C20.777 13.2769 20.7984 13.2536 20.8248 13.224C20.8774 13.165 20.95 13.081 21.0359 12.9748C21.2071 12.7632 21.4342 12.4595 21.6617 12.0862C22.1082 11.3537 22.6 10.2824 22.6 9.07698C22.6 6.08396 20.2548 3.60498 17.3 3.60498C15.388 3.60498 13.7314 4.64329 12.8001 6.18676Z" fill="#A0A0A0"/>
</svg>
