<svg width="32" height="32" viewBox="0 0 32 32" fill="none" xmlns="http://www.w3.org/2000/svg">
<path d="M5.80624 14.5852L5.80721 14.5868C6.08836 15.0451 6.4093 15.4778 6.7663 15.8799C6.76673 15.8804 6.76716 15.8809 6.76759 15.8814L6.77445 15.8892L6.78235 15.8983L6.79067 15.9069L15.64 25.0922L16.0001 25.466L16.3602 25.0922L25.2049 15.9102L25.2123 15.9029L25.219 15.8962L25.2255 15.8892L25.2761 15.8346L25.2762 15.8346L25.2811 15.8291C25.3377 15.7662 25.4125 15.677 25.5027 15.5661L25.5031 15.5656C25.6915 15.3333 25.9425 14.9976 26.1937 14.5856C26.7042 13.7486 27.1667 12.6732 27.1667 11.5627C27.1667 8.55225 24.823 6.16667 22.0001 6.16667C19.3354 6.16667 17.0978 8.29348 16.8552 11.0627H15.145C14.9025 8.29232 12.6648 6.16667 10.0001 6.16667C7.1785 6.16667 4.83341 8.55358 4.83341 11.5627C4.83341 12.6735 5.29759 13.749 5.80624 14.5852ZM15.587 7.49767L16.0001 8.10357L16.4132 7.49767C17.6471 5.68791 19.6776 4.5 22.0001 4.5C25.8015 4.5 28.8334 7.69198 28.8334 11.5627C28.8334 13.1093 28.2014 14.4937 27.616 15.4528C27.295 15.9781 26.9297 16.475 26.5241 16.9382C26.4903 16.9761 26.4658 17.0027 26.4493 17.0198L26.4443 17.025L26.4394 17.0303L26.4266 17.0444L26.408 17.0638L16.0001 27.8673L5.5895 17.0611L5.55225 17.0224L5.47489 16.9369C5.06939 16.4741 4.70406 15.9776 4.38285 15.4528C3.79855 14.4934 3.16675 13.1091 3.16675 11.5627C3.16675 7.69325 6.19874 4.5 10.0001 4.5C12.3226 4.5 14.353 5.68791 15.587 7.49767Z" fill="white" stroke="white"/>
</svg>
