<svg width="10" height="9" viewBox="0 0 10 9" fill="none" xmlns="http://www.w3.org/2000/svg">
<path d="M4.5473 1.83325L4.99972 2.79808L5.4526 1.83347C5.78089 1.13422 6.46457 0.662476 7.25 0.662476C8.34529 0.662476 9.25 1.5872 9.25 2.74848C9.25 3.1814 9.07007 3.59662 8.87612 3.91464C8.78007 4.07177 8.68424 4.20001 8.61299 4.28824C8.57392 4.33636 8.54761 4.367 8.53192 4.38411L8.53027 4.38592L8.50538 4.41335L8.49842 4.42057L4.99998 8.05184L1.50879 4.42855L1.50512 4.4242L1.4974 4.41584L1.47192 4.38823C1.34273 4.24029 1.22622 4.08172 1.12363 3.91422C0.929775 3.59626 0.75 3.18121 0.75 2.74848C0.75 1.58764 1.65477 0.662476 2.75 0.662476C3.53603 0.662476 4.21955 1.13429 4.5473 1.83325Z" fill="#979797" stroke="#979797"/>
</svg>
