<svg width="540" height="421" viewBox="0 0 540 421" fill="none" xmlns="http://www.w3.org/2000/svg">
<g clip-path="url(#clip0_134_1733)">
<mask id="mask0_134_1733" style="mask-type:luminance" maskUnits="userSpaceOnUse" x="84" y="-120" width="372" height="661">
<path d="M455.625 -119.2H84.375V540.8H455.625V-119.2Z" fill="white"/>
</mask>
<g mask="url(#mask0_134_1733)">
<mask id="mask1_134_1733" style="mask-type:luminance" maskUnits="userSpaceOnUse" x="62" y="2" width="416" height="417">
<path d="M62.0996 2.8999H477.9V418.7H62.0996V2.8999Z" fill="white"/>
</mask>
<g mask="url(#mask1_134_1733)">
<path d="M174.345 182.547V181.105C174.345 171.958 166.929 164.542 157.782 164.542H116.258C107.11 164.542 99.6948 171.958 99.6948 181.105V182.801C99.6948 189.534 103.718 195.316 109.487 197.906L109.429 197.905C113.69 199.867 131.283 206.802 151.313 198.309C152.113 197.969 153.041 198.344 153.38 199.145C153.72 199.948 153.346 200.874 152.543 201.214C144.75 204.518 137.365 205.654 130.896 205.654C126.448 205.654 122.442 205.113 119.024 204.376L102.058 227.49C99.9719 230.33 98.8477 233.764 98.8477 237.29V238.73C98.8477 247.877 106.263 255.294 115.41 255.294H157.782C166.929 255.294 174.345 247.877 174.345 238.73V237.036C174.345 229.46 167.576 223.46 163.627 221.455L153.086 217.038L171.154 192.321C173.227 189.483 174.345 186.06 174.345 182.547Z" fill="white"/>
<path d="M253.803 177.019C244.863 168.081 233.487 163.356 220.908 163.356C208.273 163.356 196.867 168.081 187.927 177.019C187.927 177.02 187.926 177.02 187.925 177.02C179.042 185.904 174.346 197.28 174.346 209.918C174.346 222.615 179.042 234.02 187.925 242.901C196.809 251.785 208.215 256.48 220.908 256.48C233.545 256.48 244.921 251.785 253.805 242.901C262.745 233.96 267.471 222.555 267.471 209.918C267.471 197.339 262.745 185.964 253.803 177.019ZM231.108 209.069C231.047 209.136 226.923 213.423 220.921 213.423C217.931 213.423 214.477 212.36 210.824 209.18C210.166 208.609 210.098 207.612 210.669 206.956C211.24 206.298 212.238 206.227 212.895 206.802C221.615 214.388 228.516 207.221 228.806 206.913C229.401 206.277 230.4 206.244 231.036 206.84C231.672 207.436 231.704 208.435 231.108 209.069Z" fill="white"/>
<path d="M349.381 177.019C340.44 168.081 329.066 163.356 316.486 163.356C303.851 163.356 292.445 168.081 283.504 177.019C283.504 177.02 283.504 177.02 283.503 177.02C274.619 185.904 269.924 197.28 269.924 209.918C269.924 222.615 274.62 234.02 283.503 242.901C292.387 251.785 303.792 256.48 316.486 256.48C329.123 256.48 340.499 251.785 349.383 242.901C358.323 233.96 363.048 222.555 363.048 209.918C363.048 197.339 358.323 185.964 349.381 177.019ZM326.686 209.069C326.625 209.136 322.501 213.423 316.499 213.423C313.51 213.423 310.055 212.36 306.402 209.18C305.744 208.609 305.676 207.612 306.247 206.956C306.819 206.298 307.815 206.227 308.472 206.802C317.193 214.388 324.094 207.221 324.384 206.913C324.978 206.277 325.978 206.244 326.614 206.84C327.249 207.436 327.281 208.435 326.686 209.069Z" fill="white"/>
<path d="M429.272 173.44C422.265 167.535 413.456 164.542 403.09 164.542H384.616C375.468 164.542 368.053 171.958 368.053 181.105V238.731C368.053 247.878 375.468 255.294 384.616 255.294H386.48C395.627 255.294 403.043 247.878 403.043 238.731V236.539C397.496 235.759 393.196 233.76 390.232 230.55C385.474 225.397 386.021 219.095 386.046 218.83C385.886 214.13 388.409 204.691 399.059 204.056C399.963 204.002 400.697 204.677 400.75 205.559C400.803 206.442 400.131 207.2 399.246 207.252C389.063 207.858 389.229 218.484 389.241 218.936C389.229 219.181 388.822 224.336 392.618 228.414C395.973 232.017 401.459 233.79 409.212 233.704C416.952 232.739 423.674 229.929 429.166 225.298C436.968 218.834 441.092 209.853 441.092 199.326C441.092 188.801 436.968 179.82 429.272 173.44Z" fill="white"/>
<path d="M174.345 291.309V289.867C174.345 280.72 166.929 273.304 157.782 273.304H116.258C107.11 273.304 99.6948 280.72 99.6948 289.867V291.563C99.6948 298.296 103.718 304.078 109.487 306.668L109.429 306.667C113.69 308.629 131.283 315.564 151.313 307.071C152.113 306.732 153.041 307.106 153.38 307.907C153.72 308.71 153.346 309.636 152.543 309.976C144.75 313.28 137.365 314.416 130.896 314.416C126.448 314.416 122.442 313.876 119.024 313.138L102.058 336.252C99.9719 339.092 98.8477 342.527 98.8477 346.053V347.493C98.8477 356.64 106.263 364.056 115.41 364.056H157.782C166.929 364.056 174.345 356.64 174.345 347.493V345.798C174.345 338.223 167.576 332.222 163.627 330.217L153.086 325.801L171.154 301.083C173.227 298.245 174.345 294.822 174.345 291.309Z" fill="white"/>
<path d="M253.803 285.781C244.863 276.843 233.487 272.118 220.908 272.118C208.273 272.118 196.867 276.843 187.927 285.781C187.927 285.782 187.926 285.782 187.925 285.782C179.042 294.666 174.346 306.043 174.346 318.68C174.346 331.377 179.042 342.782 187.925 351.663C196.809 360.547 208.215 365.243 220.908 365.243C233.545 365.243 244.921 360.547 253.805 351.663C262.745 342.723 267.471 331.317 267.471 318.68C267.471 306.101 262.745 294.726 253.803 285.781ZM231.108 317.832C231.047 317.898 226.923 322.185 220.921 322.185C217.931 322.185 214.477 321.122 210.824 317.942C210.166 317.371 210.098 316.374 210.669 315.718C211.24 315.06 212.238 314.99 212.895 315.564C221.615 323.151 228.516 315.983 228.806 315.675C229.401 315.039 230.4 315.006 231.036 315.602C231.672 316.199 231.704 317.197 231.108 317.832Z" fill="white"/>
<path d="M349.381 285.781C340.44 276.843 329.066 272.118 316.486 272.118C303.851 272.118 292.445 276.843 283.504 285.781C283.504 285.782 283.504 285.782 283.503 285.782C274.619 294.666 269.924 306.043 269.924 318.68C269.924 331.377 274.62 342.782 283.503 351.663C292.387 360.547 303.792 365.243 316.486 365.243C329.123 365.243 340.499 360.547 349.383 351.663C358.323 342.723 363.048 331.317 363.048 318.68C363.048 306.101 358.323 294.726 349.381 285.781ZM326.686 317.832C326.625 317.898 322.501 322.185 316.499 322.185C313.51 322.185 310.055 321.122 306.402 317.942C305.744 317.371 305.676 316.374 306.247 315.718C306.819 315.06 307.815 314.99 308.472 315.564C317.193 323.151 324.094 315.983 324.384 315.675C324.978 315.039 325.978 315.006 326.614 315.602C327.249 316.199 327.281 317.197 326.686 317.832Z" fill="white"/>
<path d="M429.272 282.202C422.265 276.297 413.456 273.304 403.09 273.304H384.616C375.468 273.304 368.053 280.72 368.053 289.867V347.493C368.053 356.64 375.468 364.056 384.616 364.056H386.48C395.627 364.056 403.043 356.64 403.043 347.493V345.3C397.496 344.521 393.196 342.522 390.232 339.311C385.474 334.159 386.021 327.857 386.046 327.591C385.886 322.892 388.409 313.453 399.059 312.818C399.963 312.763 400.697 313.439 400.75 314.32C400.803 315.204 400.131 315.962 399.246 316.014C389.063 316.62 389.229 327.246 389.241 327.698C389.229 327.943 388.822 333.097 392.618 337.176C395.973 340.779 401.459 342.552 409.212 342.466C416.952 341.5 423.674 338.69 429.166 334.06C436.968 327.596 441.092 318.615 441.092 308.088C441.092 297.563 436.968 288.582 429.272 282.202Z" fill="white"/>
<path d="M266.893 129.171V130.823C266.893 132.475 266.657 134.127 266.185 135.779C266.067 136.251 265.831 136.841 265.595 137.313C265.241 138.021 264.887 138.729 264.533 139.437C264.179 140.027 263.825 140.499 263.471 140.971C263.117 141.443 262.645 141.915 262.173 142.387L261.701 142.859C259.459 144.983 256.627 146.399 253.441 147.107C252.969 147.107 252.497 147.225 252.025 147.343H251.199H250.491H207.774C198.688 147.343 191.135 139.909 191.135 130.823V129.407C191.135 127.165 191.607 124.923 192.551 122.917C193.023 121.737 193.614 120.675 194.322 119.613L200.694 111.116C203.998 111.942 206.476 111.824 206.712 111.706C209.308 111.706 213.084 111.234 216.388 109.346C219.81 107.458 222.76 104.154 223.114 98.7262C223.114 98.3722 223.114 98.0182 222.878 97.7822C222.642 97.3102 222.052 97.0741 221.462 97.0741C220.872 97.0741 220.4 97.3102 220.046 97.6642C219.81 97.9002 219.692 98.2542 219.692 98.6082C219.338 103.21 216.86 105.688 214.028 106.986C210.606 108.638 206.948 108.638 206.594 108.638C206.24 108.638 204.824 108.756 202.818 108.402C200.812 108.048 198.334 107.104 196.21 105.216C193.378 102.974 191.607 99.5522 190.781 95.1861C189.955 90.702 190.427 85.9819 191.843 81.6158C192.079 80.7898 192.433 80.0818 192.669 79.3738C194.322 75.3617 196.564 71.8216 199.514 68.6355C206.712 60.8474 216.624 56.7173 228.306 56.7173C239.988 56.7173 243.529 58.6053 249.665 62.3814C252.025 63.7974 254.267 65.5675 256.155 67.5735C256.509 67.9275 256.863 68.2815 257.099 68.6355L257.925 69.4616C261.937 74.4177 264.297 80.6718 264.297 87.5159C264.297 94.3601 262.173 99.9062 258.633 104.744C258.633 104.744 258.515 104.98 258.397 104.98L252.969 112.178L256.273 113.594C257.099 114.067 258.161 114.657 259.105 115.365L259.341 115.601C260.285 116.309 261.229 117.135 262.055 118.079C262.291 118.315 262.409 118.433 262.527 118.669C262.527 118.669 262.763 118.905 262.763 119.023C263.117 119.495 263.471 119.849 263.825 120.321C264.061 120.557 264.179 120.911 264.415 121.147C264.887 121.973 265.359 122.799 265.713 123.743V124.097C265.713 124.333 265.831 124.569 265.949 124.687V125.041C265.949 125.395 266.185 125.749 266.185 126.103C266.185 126.339 266.303 126.693 266.421 127.047V127.991V129.053L266.893 129.171Z" fill="white"/>
<path d="M306.66 56.4818H306.07C305.913 56.4818 305.913 56.4818 306.07 56.4818H305.126H303.474C299.698 56.5998 296.157 57.4258 292.735 58.6058C289.903 59.6678 287.189 61.0839 284.711 62.7359C284.711 62.7359 284.475 62.8539 284.357 62.9719C284.121 63.0899 283.885 63.3259 283.649 63.4439C275.389 69.6981 270.079 79.6103 269.961 90.7025C269.961 96.4846 271.613 102.031 274.445 106.751C276.333 109.937 278.693 112.887 281.525 115.365C281.761 115.601 281.997 115.837 282.233 115.955C282.469 116.191 282.823 116.427 283.059 116.663C284.239 117.489 287.779 119.259 287.779 119.259C292.381 121.619 297.574 122.799 302.884 122.799H304.536C310.554 122.563 316.218 120.675 321.174 117.371H321.292C321.528 117.371 321.764 117.135 322 117.135C322.708 117.135 323.298 117.725 323.298 118.433C323.298 119.141 323.062 119.259 322.826 119.495H322.708C317.398 123.035 311.262 125.041 304.772 125.277H302.884C296.984 125.277 291.319 123.861 286.245 121.265C286.127 121.265 285.891 121.147 285.773 121.029H285.655C285.301 120.911 284.947 120.675 284.711 120.557C284.357 120.321 284.003 120.321 283.649 120.439C283.295 120.439 282.823 120.675 282.469 120.793C278.929 122.327 276.333 125.867 276.333 129.997C276.333 134.127 276.805 133.655 277.749 135.189C277.749 135.189 277.867 135.425 277.985 135.425C278.693 136.369 279.519 137.195 280.463 138.021C286.481 143.804 294.741 147.344 303.71 147.344H305.716C325.304 147.344 341.588 133.537 345.601 115.129C345.601 114.775 345.719 114.421 345.837 114.067C346.309 111.353 346.545 108.521 346.545 105.689V97.0746C346.545 74.8902 328.844 56.8358 306.896 56.3638L306.66 56.4818ZM316.218 91.0565C316.218 91.0565 312.088 95.4226 306.07 95.4226C300.052 95.4226 299.58 94.3606 295.921 91.1745C295.213 90.5845 295.213 89.6405 295.921 88.9325C296.511 88.2244 297.456 88.2244 298.164 88.8145C306.896 96.3666 313.74 89.2865 314.094 88.9325C314.684 88.3424 315.628 88.2244 316.336 88.8145C316.926 89.4045 316.926 90.4665 316.336 91.0565H316.218Z" fill="white"/>
</g>
</g>
</g>
<defs>
<clipPath id="clip0_134_1733">
<rect width="540" height="420" fill="white" transform="translate(0 0.799805)"/>
</clipPath>
</defs>
</svg>
