<svg width="13" height="16" viewBox="0 0 13 16" fill="none" xmlns="http://www.w3.org/2000/svg">
<g id="weight=bold, fill=true">
<path id="vector" fill-rule="evenodd" clip-rule="evenodd" d="M6.01953 0.5C3.53425 0.5 1.51953 2.51472 1.51953 5V6.5H0.582031C0.271374 6.5 0.0195312 6.75185 0.0195312 7.0625V14.9375C0.0195312 15.2481 0.271374 15.5 0.582031 15.5H11.457C11.7677 15.5 12.0195 15.2481 12.0195 14.9375V7.0625C12.0195 6.75185 11.7677 6.5 11.457 6.5H10.5195V5C10.5195 2.51472 8.50481 0.5 6.01953 0.5ZM9.01953 6.5V5C9.01953 3.34314 7.67636 2 6.01953 2C4.36268 2 3.01953 3.34314 3.01953 5V6.5H9.01953ZM6.76953 9.125C6.76953 8.71078 6.43376 8.375 6.01953 8.375C5.60531 8.375 5.26953 8.71078 5.26953 9.125V10.625C5.26953 11.0392 5.60531 11.375 6.01953 11.375C6.43376 11.375 6.76953 11.0392 6.76953 10.625V9.125Z" fill="black"/>
</g>
</svg>
