<svg width="16" height="14" viewBox="0 0 16 14" fill="none" xmlns="http://www.w3.org/2000/svg">
<g id="weight=bold, fill=true">
<path id="vector" fill-rule="evenodd" clip-rule="evenodd" d="M8.01961 2.81258C7.41398 1.522 6.13633 0.625 4.64453 0.625C2.56052 0.625 0.894531 2.37622 0.894531 4.504C0.894531 5.34921 1.24055 6.11095 1.56535 6.64382C1.72976 6.91352 1.89394 7.13312 2.01751 7.2859C2.07943 7.3624 2.13151 7.42263 2.16883 7.46447C2.18749 7.4854 2.2025 7.50175 2.21323 7.5133L2.22604 7.52688L2.22991 7.531L2.23117 7.53227L8.01953 13.5405L13.8072 7.53295L13.8079 7.53227L13.8092 7.531L13.813 7.52695L13.8258 7.5133C13.8365 7.50175 13.8515 7.4854 13.8702 7.46447C13.9076 7.42263 13.9596 7.3624 14.0216 7.2859C14.1451 7.13312 14.3093 6.91352 14.4737 6.64382C14.7985 6.11095 15.1445 5.34921 15.1445 4.504C15.1445 2.37546 13.4785 0.625 11.3945 0.625C9.90286 0.625 8.62531 1.52223 8.01961 2.81258Z" fill="black"/>
</g>
</svg>
