<svg width="35" height="35" viewBox="0 0 35 35" fill="none" xmlns="http://www.w3.org/2000/svg">
<g id="weight=bold, fill=true">
<path id="vector" fill-rule="evenodd" clip-rule="evenodd" d="M15.983 4.25001C9.50287 4.25001 4.24967 9.50321 4.24967 15.9833C4.24967 22.4634 9.50287 27.7167 15.983 27.7167C19.2163 27.7167 22.141 26.4113 24.2651 24.2946C26.3991 22.1681 27.7163 19.2313 27.7163 15.9833C27.7163 9.50321 22.4631 4.25001 15.983 4.25001ZM0.583008 15.9833C0.583008 7.47816 7.47783 0.583344 15.983 0.583344C24.4882 0.583344 31.383 7.47816 31.383 15.9833C31.383 19.5818 30.147 22.8941 28.0792 25.5154L34.8766 32.2842L32.2894 34.8824L25.483 28.1046C22.8668 30.1574 19.5668 31.3833 15.983 31.3833C7.47783 31.3833 0.583008 24.4885 0.583008 15.9833Z" fill="black"/>
</g>
</svg>
