<svg width="14" height="17" viewBox="0 0 14 17" fill="none" xmlns="http://www.w3.org/2000/svg">
<g id="weight=bold, fill=true">
<path id="vector" fill-rule="evenodd" clip-rule="evenodd" d="M7.01953 0.75C6.02496 0.75 5.07114 1.14508 4.36788 1.84835C3.84409 2.37214 3.49126 3.03492 3.34528 3.75H1.17103C0.664931 3.75 0.269531 4.15819 0.269531 4.65V15.6091L0.269749 15.6182C0.275426 15.8518 0.371344 16.0741 0.537379 16.2385C0.703406 16.4029 0.926651 16.4966 1.16028 16.4999L1.16565 16.5H12.868C13.3741 16.5 13.7695 16.0918 13.7695 15.6V10.875H7.01953V9.375H13.7695V4.65C13.7695 4.165 13.3727 3.75 12.868 3.75H10.6938C10.5478 3.03492 10.195 2.37214 9.67116 1.84835C8.96796 1.14508 8.01411 0.75 7.01953 0.75ZM8.61051 2.90901C8.85006 3.14856 9.03006 3.43657 9.14083 3.75H4.89821C5.00903 3.43657 5.18898 3.14856 5.42854 2.90901C5.85051 2.48705 6.42283 2.25 7.01953 2.25C7.61623 2.25 8.18856 2.48705 8.61051 2.90901Z" fill="black"/>
</g>
</svg>
