<svg width="19" height="19" viewBox="0 0 19 19" fill="none" xmlns="http://www.w3.org/2000/svg">
<g id="SVG">
<path id="Vector" d="M12.404 3.04543C11.8151 3.70668 10.8728 4.22823 9.93052 4.15373C9.81274 3.25963 10.274 2.30966 10.8139 1.72292C11.4028 1.04304 12.4334 0.558738 13.2677 0.521484C13.3659 1.45283 12.9831 2.36554 12.404 3.04543ZM13.2579 4.33068C11.8936 4.25617 10.7255 5.06644 10.0777 5.06644C9.42013 5.06644 8.42879 4.36794 7.34911 4.38656C5.94554 4.40519 4.64011 5.15958 3.9236 6.36101C2.45131 8.76388 3.54081 12.3216 4.96401 14.2775C5.6609 15.2461 6.49519 16.3078 7.5945 16.2705C8.63491 16.2333 9.04715 15.6279 10.3035 15.6279C11.5697 15.6279 11.9329 16.2705 13.0322 16.2519C14.1707 16.2333 14.8873 15.2833 15.5841 14.3147C16.3792 13.2157 16.7031 12.1447 16.7227 12.0888C16.7031 12.0702 14.5241 11.2785 14.5045 8.89427C14.4848 6.90119 16.2221 5.95122 16.3006 5.89534C15.3191 4.51695 13.7879 4.36794 13.2579 4.33068Z" fill="black"/>
</g>
</svg>
