<svg width="19" height="19" viewBox="0 0 19 19" fill="none" xmlns="http://www.w3.org/2000/svg">
<g id="SVG">
<path id="Vector" d="M8.69033 12.9418C7.05986 12.9418 5.84334 11.6726 5.8349 9.51324C5.84334 7.34566 7.1021 6.10115 8.69033 6.10115C9.85616 6.10115 10.3715 6.80994 10.5827 7.22203H10.6672V6.23302H12.1372V10.8484C12.1625 11.4501 12.4075 11.7468 12.9144 11.7385C13.869 11.7468 14.4942 10.6671 14.5026 9.06818C14.5195 6.08467 12.3315 4.12313 9.18032 4.12313C5.92782 4.13137 3.84961 6.505 3.84116 9.51324C3.84116 12.7852 5.65749 14.9446 9.11273 14.9199C10.3039 14.9116 11.1487 14.821 12.1372 14.5572V15.8759C11.2501 16.1231 10.2279 16.2715 9.11273 16.2715C4.93096 16.2715 2.42189 13.6671 2.42189 9.51324C2.41344 5.61489 5.21819 2.77148 9.18032 2.77148C13.1847 2.77148 15.9303 5.44181 15.9219 9.01873C15.9219 11.549 14.5955 13.016 12.7961 13.0078C11.6979 13.0078 10.8784 12.4638 10.7517 11.7056H10.6672C10.456 12.1259 9.9153 12.9418 8.69033 12.9418ZM7.42313 9.49676C7.41468 10.6918 8.00604 11.5819 9.06205 11.5902C10.135 11.5819 10.6925 10.7578 10.701 9.49676C10.6925 8.26873 10.1434 7.46104 9.06205 7.4528C7.99759 7.46104 7.41468 8.33467 7.42313 9.49676Z" fill="black"/>
</g>
</svg>
